<?xml version="1.0" encoding="UTF-8" standalone="no"?>
<!-- Created with Inkscape (http://www.inkscape.org/) -->
<svg
   xmlns:dc="http://purl.org/dc/elements/1.1/"
   xmlns:cc="http://creativecommons.org/ns#"
   xmlns:rdf="http://www.w3.org/1999/02/22-rdf-syntax-ns#"
   xmlns:svg="http://www.w3.org/2000/svg"
   xmlns="http://www.w3.org/2000/svg"
   xmlns:sodipodi="http://sodipodi.sourceforge.net/DTD/sodipodi-0.dtd"
   xmlns:inkscape="http://www.inkscape.org/namespaces/inkscape"
   width="744.09448819"
   height="1052.3622047"
   id="svg2"
   sodipodi:version="0.32"
   inkscape:version="0.46"
   sodipodi:docname="iconDistribute.svg"
   inkscape:output_extension="org.inkscape.output.svg.inkscape">
  <defs
     id="defs4">
    <inkscape:perspective
       sodipodi:type="inkscape:persp3d"
       inkscape:vp_x="0 : 526.18109 : 1"
       inkscape:vp_y="0 : 1000 : 0"
       inkscape:vp_z="744.09448 : 526.18109 : 1"
       inkscape:persp3d-origin="372.04724 : 350.78739 : 1"
       id="perspective10" />
  </defs>
  <sodipodi:namedview
     id="base"
     pagecolor="#ffffff"
     bordercolor="#666666"
     borderopacity="1.0"
     gridtolerance="10000"
     guidetolerance="10"
     objecttolerance="10"
     inkscape:pageopacity="0.0"
     inkscape:pageshadow="2"
     inkscape:zoom="0.7"
     inkscape:cx="341.49783"
     inkscape:cy="796.05429"
     inkscape:document-units="px"
     inkscape:current-layer="g2409"
     showgrid="false"
     inkscape:window-width="1083"
     inkscape:window-height="729"
     inkscape:window-x="32"
     inkscape:window-y="63" />
  <metadata
     id="metadata7">
    <rdf:RDF>
      <cc:Work
         rdf:about="">
        <dc:format>image/svg+xml</dc:format>
        <dc:type
           rdf:resource="http://purl.org/dc/dcmitype/StillImage" />
      </cc:Work>
    </rdf:RDF>
  </metadata>
  <g
     inkscape:label="Layer 1"
     inkscape:groupmode="layer"
     id="layer1">
    <g
       id="g2409"
       transform="matrix(1.9535062,0,0,2.104569,-38.143391,-447.9731)">
      <g
         id="g2427"
         transform="matrix(0.5119001,0,0,0.4751567,90.987999,212.85741)"
         inkscape:export-filename="/home/nknouf/Documents/Personal/Projects/FirefoxExtensions/MAICgregator/trunk/MAICgregatorServer/static/iconDistribute.png"
         inkscape:export-xdpi="90.510002"
         inkscape:export-ydpi="90.510002">
        <rect
           y="408.79077"
           x="68.571426"
           height="17.142857"
           width="94.285713"
           id="rect2405"
           style="opacity:1;fill:#aa0000;fill-opacity:1;stroke:none;stroke-opacity:1" />
        <rect
           y="408.79077"
           x="244.28572"
           height="17.142857"
           width="94.285713"
           id="rect2407"
           style="opacity:1;fill:#aa0000;fill-opacity:1;stroke:none;stroke-opacity:1" />
      </g>
      <g
         id="g2423"
         transform="matrix(0.5119001,0,0,0.4751567,94.64443,212.85741)"
         inkscape:export-filename="/home/nknouf/Documents/Personal/Projects/FirefoxExtensions/MAICgregator/trunk/MAICgregatorServer/static/iconDistribute.png"
         inkscape:export-xdpi="90.510002"
         inkscape:export-ydpi="90.510002">
        <rect
           transform="matrix(0,1,-1,0,0,0)"
           y="-205"
           x="290.5936"
           height="17.142857"
           width="94.285713"
           id="rect2419"
           style="opacity:1;fill:#aa0000;fill-opacity:1;stroke:none;stroke-opacity:1" />
        <rect
           transform="matrix(0,1,-1,0,0,0)"
           y="-205"
           x="463.79077"
           height="17.142857"
           width="94.285713"
           id="rect2421"
           style="opacity:1;fill:#aa0000;fill-opacity:1;stroke:none;stroke-opacity:1" />
      </g>
      <path
         sodipodi:type="arc"
         style="fill:none;fill-opacity:1;stroke:#aa0000;stroke-width:15;stroke-miterlimit:4;stroke-dasharray:none;stroke-opacity:1"
         id="path2431"
         sodipodi:cx="185.71428"
         sodipodi:cy="422.36218"
         sodipodi:rx="104.28571"
         sodipodi:ry="104.28571"
         d="M 289.99999,422.36218 A 104.28571,104.28571 0 1 1 81.428566,422.36218 A 104.28571,104.28571 0 1 1 289.99999,422.36218 z"
         transform="matrix(0.5119001,0,0,0.4751567,100.12908,212.85741)"
         inkscape:export-filename="/home/nknouf/Documents/Personal/Projects/FirefoxExtensions/MAICgregator/trunk/MAICgregatorServer/static/iconDistribute.png"
         inkscape:export-xdpi="90.510002"
         inkscape:export-ydpi="90.510002" />
      <path
         style="font-size:40px;font-style:normal;font-weight:normal;fill:#e4ff00;fill-opacity:1;stroke:none;stroke-width:1.54268682;stroke-linecap:butt;stroke-linejoin:miter;stroke-miterlimit:4;stroke-opacity:1;font-family:Bitstream Vera Sans"
         d="M 147.8559,431.62956 L 147.8559,429.22956 L 142.4559,429.22956 C 141.5359,428.74956 140.6159,428.62956 139.5359,428.62956 C 135.6159,428.62956 132.8159,431.30956 132.8159,435.26956 C 132.8159,437.98956 134.4959,440.42956 137.0559,441.34956 C 135.4959,441.98956 133.4559,442.82956 133.4559,444.86956 C 133.4559,446.22956 134.6959,447.22956 136.0959,447.38956 C 134.0959,448.46956 132.1759,449.54956 132.1759,452.14956 C 132.1759,455.78956 135.8159,456.82956 138.8159,456.82956 C 142.85589,456.82956 147.5359,454.42955 147.5359,449.82956 C 147.5359,447.22956 145.37589,445.74956 142.8959,445.74956 L 141.5359,445.74956 C 140.3759,445.74956 136.5759,445.66956 136.5759,444.34956 C 136.5759,442.74956 139.8959,441.90956 141.0559,441.54956 C 143.81589,440.70956 145.9359,438.34956 145.9359,435.38956 C 145.9359,434.22956 145.6159,432.66956 145.0159,431.62956 L 147.8559,431.62956 M 143.0159,435.14956 C 143.0159,437.22956 141.69589,439.58956 139.3759,439.58956 C 137.0559,439.58956 135.7359,437.22956 135.7359,435.14956 C 135.7359,433.06956 137.0559,430.70956 139.3759,430.70956 C 141.69589,430.70956 143.0159,433.06956 143.0159,435.14956 M 144.5759,450.18956 C 144.5759,452.94956 141.41589,454.62956 138.9759,454.62956 C 137.0159,454.62956 135.1359,453.78956 135.1359,451.54956 C 135.1359,449.70956 136.9359,448.66956 138.3759,447.86956 L 140.7359,447.86956 C 142.3759,447.86956 144.5759,448.06956 144.5759,450.18956 M 161.33536,429.22956 C 161.33536,429.22956 160.45536,428.62956 159.37536,428.62956 C 156.93536,428.62956 155.97536,429.94956 155.13536,430.78956 L 155.13536,429.22956 L 152.05536,429.22956 L 152.05536,448.82956 L 155.09536,448.82956 L 155.09536,433.54956 C 155.93536,432.70956 157.09536,431.42956 158.45536,431.42956 C 159.61536,431.42956 160.25536,431.94956 160.25536,431.94956 L 161.33536,429.22956 M 175.2964,435.78956 L 166.7764,435.78956 C 167.25639,433.58956 168.8164,431.02956 171.3364,431.02956 C 173.85639,431.02956 175.2964,433.54956 175.2964,435.78956 M 178.4964,438.06956 C 178.4564,437.38956 178.4564,436.70956 178.4164,436.02956 C 178.1764,432.34956 175.57639,428.62956 171.6164,428.62956 C 166.3764,428.62956 163.2964,433.70956 163.2964,438.50956 C 163.2964,443.18955 165.1364,449.42956 170.8564,449.42956 C 173.13639,449.42956 175.9764,447.94956 177.6964,446.46956 L 176.7364,444.54956 C 175.4564,445.42956 172.69639,447.02956 171.1764,447.02956 C 167.5364,447.02956 166.4164,441.62956 166.4164,438.82956 C 166.4164,438.54956 166.4164,438.30956 166.4164,438.06956 L 178.4964,438.06956 M 197.45673,431.62956 L 197.45673,429.22956 L 192.05673,429.22956 C 191.13673,428.74956 190.21673,428.62956 189.13673,428.62956 C 185.21673,428.62956 182.41673,431.30956 182.41673,435.26956 C 182.41673,437.98956 184.09673,440.42956 186.65673,441.34956 C 185.09673,441.98956 183.05673,442.82956 183.05673,444.86956 C 183.05673,446.22956 184.29673,447.22956 185.69673,447.38956 C 183.69673,448.46956 181.77673,449.54956 181.77673,452.14956 C 181.77673,455.78956 185.41673,456.82956 188.41673,456.82956 C 192.45672,456.82956 197.13673,454.42955 197.13673,449.82956 C 197.13673,447.22956 194.97672,445.74956 192.49673,445.74956 L 191.13673,445.74956 C 189.97673,445.74956 186.17673,445.66956 186.17673,444.34956 C 186.17673,442.74956 189.49673,441.90956 190.65673,441.54956 C 193.41672,440.70956 195.53673,438.34956 195.53673,435.38956 C 195.53673,434.22956 195.21673,432.66956 194.61673,431.62956 L 197.45673,431.62956 M 192.61673,435.14956 C 192.61673,437.22956 191.29672,439.58956 188.97673,439.58956 C 186.65673,439.58956 185.33673,437.22956 185.33673,435.14956 C 185.33673,433.06956 186.65673,430.70956 188.97673,430.70956 C 191.29672,430.70956 192.61673,433.06956 192.61673,435.14956 M 194.17673,450.18956 C 194.17673,452.94956 191.01672,454.62956 188.57673,454.62956 C 186.61673,454.62956 184.73673,453.78956 184.73673,451.54956 C 184.73673,449.70956 186.53673,448.66956 187.97673,447.86956 L 190.33673,447.86956 C 191.97673,447.86956 194.17673,448.06956 194.17673,450.18956 M 210.61619,440.50956 C 210.61619,443.10956 208.81619,447.02956 205.77619,447.02956 C 204.01619,447.02956 203.05619,445.54956 203.05619,443.90956 C 203.05619,443.22956 203.29619,442.42956 203.57619,441.82956 L 210.61619,438.86956 L 210.61619,440.50956 M 216.49619,448.62956 L 215.73619,447.10956 C 215.53619,447.26956 215.17619,447.34956 214.93619,447.34956 C 214.17619,447.34956 213.65619,446.90956 213.65619,446.14956 L 213.65619,433.94956 C 213.65619,430.30956 211.25619,428.62956 207.81619,428.62956 C 205.29619,428.62956 202.57619,430.14956 201.01619,432.10956 L 202.13619,433.98956 C 203.37619,432.58956 205.57619,431.10956 207.53619,431.10956 C 209.33619,431.10956 210.61619,432.02956 210.61619,433.94956 L 210.61619,436.46956 L 201.21619,440.46956 C 200.69619,441.42956 200.05619,442.94956 200.05619,444.02956 C 200.05619,447.18956 201.89619,449.42956 205.17619,449.42956 C 207.49619,449.42956 209.97619,448.18956 210.65619,445.82956 C 210.65619,447.94956 212.05619,449.34956 214.17619,449.34956 C 214.93619,449.34956 215.85619,449.02956 216.49619,448.62956 M 228.25633,448.30956 L 227.57633,446.42956 C 227.57633,446.42956 226.25633,446.98956 225.25633,446.98956 C 224.33633,446.98956 223.69633,446.50956 223.69633,444.78956 L 223.69633,431.54956 L 227.57633,431.54956 L 227.57633,429.22956 L 223.61633,429.22956 L 223.61633,425.74956 L 220.81633,425.74956 L 220.81633,429.22956 L 218.01633,429.22956 L 218.01633,431.18956 L 220.65633,431.54956 L 220.65633,444.94956 C 220.65633,448.30956 222.29633,449.42956 224.17633,449.42956 C 226.49632,449.42956 228.25633,448.30956 228.25633,448.30956 M 239.01632,431.02956 C 242.33631,431.02956 243.77632,436.06956 243.77632,439.06956 C 243.77632,442.06956 242.33631,447.02956 239.01632,447.02956 C 235.69632,447.02956 234.25632,442.06956 234.25632,439.06956 C 234.25632,436.06956 235.69632,431.02956 239.01632,431.02956 M 239.01632,428.62956 C 233.61632,428.62956 231.21632,434.46956 231.21632,439.06956 C 231.21632,443.66955 233.65632,449.42956 239.01632,449.42956 C 244.37631,449.42956 246.81632,443.66955 246.81632,439.06956 C 246.81632,434.46956 244.41631,428.62956 239.01632,428.62956 M 261.33658,429.22956 C 261.33658,429.22956 260.45658,428.62956 259.37658,428.62956 C 256.93658,428.62956 255.97658,429.94956 255.13658,430.78956 L 255.13658,429.22956 L 252.05658,429.22956 L 252.05658,448.82956 L 255.09658,448.82956 L 255.09658,433.54956 C 255.93658,432.70956 257.09658,431.42956 258.45658,431.42956 C 259.61658,431.42956 260.25658,431.94956 260.25658,431.94956 L 261.33658,429.22956"
         id="text2538"
         inkscape:export-filename="/home/nknouf/Documents/Personal/Projects/FirefoxExtensions/MAICgregator/trunk/MAICgregatorServer/static/iconDistribute.png"
         inkscape:export-xdpi="90.510002"
         inkscape:export-ydpi="90.510002" />
      <path
         style="font-size:40px;font-style:normal;font-weight:normal;fill:#e4e400;fill-opacity:1;stroke:none;stroke-width:1.9865545;stroke-linecap:butt;stroke-linejoin:miter;stroke-miterlimit:4;stroke-opacity:1;font-family:Bitstream Vera Sans"
         d="M 173.43189,413.52853 L 173.43189,373.20853 L 165.23989,373.20853 L 155.63989,400.53653 C 154.99989,402.39253 154.74389,404.12053 154.74389,404.12053 C 154.74389,404.12053 154.48789,402.45653 153.84789,400.53653 L 144.24789,373.20853 L 136.05589,373.20853 L 136.05589,413.52853 L 143.03189,413.52853 L 143.03189,391.32053 L 142.51989,386.64853 L 151.86389,413.52853 L 157.62389,413.52853 L 166.96789,386.64853 L 166.45589,391.32053 L 166.45589,413.52853 L 173.43189,413.52853 M 210.48817,413.52853 L 197.68817,373.20853 L 191.92817,373.20853 L 179.19217,413.52853 L 186.42417,413.52853 L 190.26417,401.94453 L 199.48017,401.94453 L 203.32017,413.52853 L 210.48817,413.52853 M 197.88017,395.80053 L 191.80017,395.80053 L 194.87217,383.38453 L 197.88017,395.80053 M 222.2008,413.52853 L 222.2008,373.20853 L 215.2888,373.20853 L 215.2888,413.52853 L 222.2008,413.52853 M 256.50522,410.77653 L 253.30522,406.04053 C 251.19322,407.57653 248.12122,408.47253 245.62522,408.47253 C 238.20123,408.47253 236.66522,399.32053 236.66522,393.62453 C 236.66522,388.12054 239.54523,378.20053 245.49722,378.20053 C 247.86522,378.20053 251.12922,378.64854 253.24122,379.92853 L 255.92922,375.12853 C 253.24122,373.14454 248.76122,372.24853 245.49722,372.24853 C 234.61723,372.24853 229.68922,384.02454 229.68922,393.36853 C 229.68922,403.28852 233.65723,414.48853 245.36922,414.48853 C 249.08122,414.48853 253.68922,413.14453 256.50522,410.77653"
         id="text2544"
         inkscape:export-filename="/home/nknouf/Documents/Personal/Projects/FirefoxExtensions/MAICgregator/trunk/MAICgregatorServer/static/iconDistribute.png"
         inkscape:export-xdpi="90.510002"
         inkscape:export-ydpi="90.510002" />
    </g>
  </g>
</svg>
